<svg id="圖層_1" data-name="圖層 1" xmlns="http://www.w3.org/2000/svg" viewBox="0 0 283.46 113.39"><defs><style>.cls-1{fill:#e07979;}</style></defs><title>相關圖片logo</title><path class="cls-1" d="M179.62,37.33c-4.37-2.68-8.37,4.19-4,6.86,6.91,4.24,10.82,13.05,8.37,21-2.57,8.34-11.67,14.09-20.31,12.62-9.06-1.54-17-10-17.38-19.3-.39-10.26,7.94-18.1,18-18.19,5.11,0,5.12-8,0-7.94-13.63.12-25,10.31-25.87,24.08-.83,13.56,10.07,26.44,23.19,29a26.71,26.71,0,0,0,29.68-17C195.4,56.86,189.93,43.66,179.62,37.33Z"/><path class="cls-1" d="M175.09,60.94a4.44,4.44,0,0,0-.58-.56c-5.78-4.58-13.42-5-19.09-.55-2.79.47-5,4.12-2.37,6.73.1.11.21.2.32.3a4.57,4.57,0,0,0,1.22,1.06A16.34,16.34,0,0,0,176,67.05C178.33,65,177.19,62.13,175.09,60.94Z"/><path class="cls-1" d="M157,51.79a4,4,0,0,0-1-1.75l-.31-.32a3.06,3.06,0,0,0-1.28-.82,3.61,3.61,0,0,0-3.06,0,3,3,0,0,0-1.28.82l-.62.81a3.93,3.93,0,0,0-.54,2l.14,1.06a4,4,0,0,0,1,1.75l.31.31a3,3,0,0,0,1.28.83,3.61,3.61,0,0,0,3.06,0,3,3,0,0,0,1.28-.83c.21-.26.41-.53.62-.8a3.93,3.93,0,0,0,.54-2C157,52.49,157,52.14,157,51.79Z"/><path class="cls-1" d="M168.3,45.23a4,4,0,0,0-5.44-1.43A4.15,4.15,0,0,0,161,46.17l-.6,2.19a4.09,4.09,0,0,0,.4,3.06,4,4,0,0,0,5.43,1.42,4.14,4.14,0,0,0,1.83-2.37l.6-2.18A4.12,4.12,0,0,0,168.3,45.23Z"/><path class="cls-1" d="M179.25,48.48a4,4,0,0,0-2.81-1.16,4.1,4.1,0,0,0-2.81,1.16l-1.87,1.87a4.1,4.1,0,0,0-1.16,2.81,4,4,0,0,0,1.16,2.8,4,4,0,0,0,2.81,1.17A4.11,4.11,0,0,0,177.38,56l1.87-1.86a4.1,4.1,0,0,0,1.16-2.81A4.05,4.05,0,0,0,179.25,48.48Z"/><path class="cls-1" d="M71.17,28.44a5.6,5.6,0,0,0-5,.49,6,6,0,0,0-2.87,1.92,104.07,104.07,0,0,0-9.6,12.91,35,35,0,0,0-8.45-9.42c-2.59-2.86-8-3.72-10.94.44A87.21,87.21,0,0,0,18.43,79.67c-.59,8.34,12.4,8.31,13,0a73.31,73.31,0,0,1,9.7-31.53,20.74,20.74,0,0,1,3.72,8.35,5.8,5.8,0,0,0,2.67,3.63c1.88,4.66,8.79,6.93,11.38,1.24A89.26,89.26,0,0,1,70.28,42.62C73.54,46,74,53,74.23,56.89a49.32,49.32,0,0,1-3.41,19.92C67.9,84.65,80.45,88,83.35,80.26,89.22,64.51,91.14,35.14,71.17,28.44Z"/><path class="cls-1" d="M212.29,87.69a5.63,5.63,0,0,0,5.05-.5,6,6,0,0,0,2.88-1.92,104.15,104.15,0,0,0,9.59-12.9,35,35,0,0,0,8.45,9.41c2.59,2.87,8,3.73,10.94-.43A87.24,87.24,0,0,0,265,36.45c.6-8.34-12.39-8.3-13,0A73.3,73.3,0,0,1,242.35,68a20.72,20.72,0,0,1-3.73-8.34A5.79,5.79,0,0,0,236,56c-1.88-4.67-8.8-6.94-11.39-1.25A88.55,88.55,0,0,1,213.19,73.5c-3.27-3.4-3.76-10.34-3.95-14.27a49.14,49.14,0,0,1,3.4-19.92c2.93-7.84-9.62-11.22-12.52-3.45C194.24,51.61,192.32,81,212.29,87.69Z"/><path class="cls-1" d="M122.48,67.38c-2.23,3.22-5.79,6.82-10.09,6.46-5.19-.42-5.74-5.07-6-9.3-.08-1.56-.1-3.12-.08-4.68l8.8-.8c3.49-.31,6.49-2.75,6.49-6.49,0-3.27-3-6.81-6.49-6.49l-7.76.7c.41-2.85.92-5.69,1.53-8.5A47.45,47.45,0,0,1,124.67,40c8.06,2.24,11.51-10.29,3.45-12.53a62,62,0,0,0-26.37-1.38c-2.68.41-4.39,3.07-4.68,5.7a129.64,129.64,0,0,0-3.64,28.42c-.09,7.33.16,15.58,5.69,21.12,11.15,11.2,27,3.5,34.58-7.44C138.47,67.05,127.22,60.55,122.48,67.38Z"/></svg>